<svg aria-hidden="true" style="position: absolute; width: 0; height: 0; overflow: hidden;" version="1.1" xmlns="http://www.w3.org/2000/svg" xmlns:xlink="http://www.w3.org/1999/xlink">
<defs>
<symbol id="icon-Combined-Shape-1" viewBox="0 0 132 32">
<path fill="#fff" style="fill: var(--color1, #fff)" d="M32.262 4.289c1.563 0 2.977 0.392 4.243 1.173 1.267 0.785 2.269 1.893 3.006 3.334 0.738 1.44 1.107 3.11 1.107 5.009 0 1.899-0.369 3.581-1.107 5.044-0.737 1.463-1.739 2.597-3.005 3.401-1.267 0.804-2.681 1.206-4.244 1.206-1.343 0-2.527-0.279-3.551-0.837-1.023-0.558-1.854-1.262-2.493-2.111v11.493h-4.623v-27.41h4.625v2.681c0.594-0.846 1.414-1.559 2.46-2.129s2.24-0.854 3.582-0.854zM50.657 4.289c1.739 0 3.297 0.379 4.673 1.139 1.366 0.757 2.459 1.859 3.182 3.192l0.021 0.042c0.76 1.396 1.14 2.999 1.14 4.808 0 0.671-0.043 1.273-0.132 1.81h-13.375c0.11 1.34 0.573 2.39 1.387 3.149s1.817 1.14 3.005 1.14c1.718 0 2.939-0.748 3.666-2.245h4.987c-0.529 1.787-1.541 3.256-3.038 4.407-1.497 1.153-3.336 1.725-5.515 1.725-1.761 0-3.341-0.396-4.739-1.189s-2.488-1.916-3.269-3.367c-0.782-1.452-1.173-3.128-1.173-5.027 0-1.918 0.385-3.605 1.156-5.059 0.77-1.452 1.849-2.566 3.236-3.351 1.387-0.779 2.983-1.173 4.789-1.173zM123.113 4.289c1.739 0 3.297 0.379 4.673 1.139 1.366 0.757 2.459 1.859 3.182 3.192l0.021 0.042c0.76 1.396 1.14 2.999 1.14 4.808 0 0.671-0.044 1.273-0.132 1.81h-13.375c0.109 1.34 0.572 2.39 1.387 3.149 0.814 0.76 1.816 1.14 3.005 1.14 1.718 0 2.939-0.748 3.666-2.245h4.987c-0.529 1.787-1.541 3.256-3.038 4.407-1.498 1.153-3.336 1.725-5.515 1.725-1.761 0-3.341-0.396-4.739-1.189-1.399-0.793-2.488-1.916-3.269-3.367-0.782-1.452-1.173-3.128-1.173-5.027 0-1.918 0.385-3.605 1.156-5.059 0.77-1.452 1.849-2.566 3.236-3.351 1.387-0.779 2.983-1.173 4.789-1.173zM4.569 16.86l8.504 4.998c-0.33 0.279-0.715 0.531-1.128 0.754-1.046 0.558-2.257 0.838-3.634 0.838-1.348 0-2.614-0.308-3.742-0.95v-5.64zM89.030 4.59v10.22c0 1.474 0.363 2.609 1.090 3.401s1.718 1.189 2.973 1.189c1.277 0 2.278-0.396 3.005-1.189s1.090-1.927 1.090-3.401v-10.219h4.655v18.562h-4.655v-2.345c-0.595 0.804-1.371 1.435-2.329 1.893-0.894 0.433-1.945 0.687-3.056 0.687-0.023 0-0.046-0-0.068-0l0.003 0c-1.431 0-2.697-0.307-3.799-0.921-1.1-0.615-1.964-1.519-2.591-2.715-0.629-1.195-0.942-2.619-0.942-4.273v-10.889h4.625zM71.298 4.323v4.926h-1.222c-1.453 0-2.549 0.346-3.286 1.038-0.738 0.693-1.107 1.899-1.107 3.619v9.249h-4.625v-18.565h4.625v2.881c0.577-0.96 1.362-1.74 2.297-2.294l0.030-0.017c0.958-0.557 2.054-0.837 3.287-0.837zM113.998 4.323v4.926h-1.222c-1.453 0-2.549 0.346-3.286 1.038-0.738 0.693-1.107 1.899-1.107 3.619v9.249h-4.623v-18.565h4.623v2.881c0.577-0.96 1.362-1.74 2.297-2.294l0.030-0.017c0.958-0.557 2.053-0.837 3.287-0.837zM79.125 0v4.59h4.096v3.853h-4.096v8.981c0 0.626 0.149 1.078 0.446 1.357 0.297 0.279 0.798 0.418 1.503 0.418h2.147v3.954h-2.907c-3.897 0-5.846-1.92-5.846-5.763v-8.947h-2.179v-3.853h2.179v-4.59h4.657zM19.045 12.978v10.165h-4.65v-2.709c-0.227 0.348-0.481 0.65-0.768 0.918l-0.003 0.003-4.458-2.596 9.88-5.781zM3.881 11.889v10.191c-1.156-0.781-2.091-1.843-2.78-3.239-0.689-1.368-1.047-2.932-1.101-4.691l3.881-2.262zM31.041 8.41c-0.836 0-1.624 0.218-2.361 0.653-0.738 0.436-1.332 1.067-1.784 1.893-0.451 0.827-0.677 1.798-0.677 2.915s0.226 2.092 0.677 2.916c0.451 0.826 1.046 1.458 1.784 1.893 0.672 0.41 1.484 0.653 2.354 0.653 0.002 0 0.005 0 0.007 0h-0c0.859 0 1.657-0.224 2.395-0.671 0.737-0.446 1.332-1.084 1.783-1.91 0.452-0.826 0.677-1.81 0.677-2.949 0-1.117-0.226-2.083-0.677-2.898s-1.046-1.435-1.783-1.86c-0.679-0.4-1.496-0.637-2.368-0.637-0.009 0-0.019 0-0.028 0h0.001zM19.045 4.601v7.566l-5.973 3.491v-9.774c0.523 0.391 0.964 0.838 1.321 1.34v-2.623h4.651zM3.193 6.108l4.596 2.682-7.761 4.551c0.027-1.703 0.385-3.21 1.074-4.523 0.539-1.059 1.24-1.958 2.082-2.7l0.010-0.008zM50.525 8.141c-1.146 0-2.108 0.352-2.89 1.056-0.781 0.704-1.259 1.682-1.436 2.932h8.685c-0.022-1.206-0.451-2.172-1.288-2.898-0.836-0.727-1.86-1.089-3.071-1.089zM122.981 8.141c-1.145 0-2.108 0.352-2.889 1.056-0.782 0.704-1.261 1.682-1.437 2.932h8.685c-0.022-1.206-0.451-2.172-1.288-2.898-0.836-0.727-1.86-1.089-3.071-1.089zM8.365 4.294c1.349 0 2.532 0.279 3.578 0.838 0.138 0.084 0.303 0.167 0.441 0.279v5.278l-8.559-5.027c0.083-0.083 0.193-0.138 0.276-0.194 1.266-0.782 2.697-1.174 4.265-1.174z"></path>
</symbol>
</defs>
</svg>